<?xml version="1.0" standalone="no"?>
<!DOCTYPE svg PUBLIC "-//W3C//DTD SVG 20010904//EN"
 "http://www.w3.org/TR/2001/REC-SVG-20010904/DTD/svg10.dtd">
<svg version="1.0" xmlns="http://www.w3.org/2000/svg"
 width="512.000000pt" height="512.000000pt" viewBox="0 0 512.000000 512.000000"
 preserveAspectRatio="xMidYMid meet">
<metadata>
Created by potrace 1.11, written by Peter Selinger 2001-2013
</metadata>
<g transform="translate(0.000000,512.000000) scale(0.100000,-0.100000)"
fill="#000000" stroke="none">
<path d="M2360 5104 c-451 -74 -811 -341 -1021 -755 -38 -76 -94 -244 -108
-327 -6 -34 -14 -74 -17 -89 -4 -16 -8 -237 -9 -493 -2 -256 -4 -473 -4 -482
-1 -12 -13 -19 -38 -24 -196 -35 -372 -195 -423 -384 -7 -25 -14 -54 -17 -65
-3 -11 -7 -459 -7 -996 -2 -1075 -4 -1049 59 -1176 63 -127 174 -228 311 -281
l69 -27 1378 -3 c1330 -2 1381 -2 1453 17 199 51 366 227 407 430 10 49 13
277 11 1040 0 537 -4 985 -7 996 -3 11 -10 39 -16 62 -38 141 -153 275 -291
341 -47 22 -102 42 -124 45 -21 4 -41 9 -44 12 -3 3 -6 218 -7 478 -2 486 -6
544 -49 702 -34 127 -154 375 -215 443 -9 9 -28 33 -42 52 -44 59 -160 170
-239 229 -167 126 -331 200 -545 246 -99 22 -359 27 -465 9z m355 -209 c150
-18 332 -88 467 -178 253 -169 420 -413 489 -714 21 -93 23 -122 25 -580 l2
-482 -119 0 -119 -1 -1 423 c0 232 -2 438 -3 457 -11 134 -39 237 -96 350
-162 320 -471 506 -825 495 -245 -7 -468 -109 -637 -290 -49 -52 -138 -191
-165 -257 -70 -173 -75 -216 -76 -730 l-1 -446 -119 -1 -118 -1 4 487 c3 418
6 499 21 563 36 155 88 276 173 405 183 277 504 475 815 501 40 4 74 8 76 9 5
4 146 -3 207 -10z m35 -470 c261 -81 440 -290 486 -573 5 -28 9 -813 5 -894
-1 -15 -51 -16 -683 -15 l-683 2 1 450 c2 422 3 455 23 530 70 269 285 471
549 515 73 12 241 4 302 -15z m1180 -1709 c83 -19 168 -81 214 -156 56 -91 54
-37 54 -1080 0 -899 -2 -966 -18 -1021 -32 -104 -124 -195 -229 -226 -50 -14
-189 -16 -1386 -16 -1010 0 -1341 3 -1375 13 -109 29 -203 116 -238 222 -21
62 -21 72 -21 1013 0 1023 0 1009 52 1092 57 90 147 149 245 161 78 10 2659 7
2702 -2z"/>
<path d="M2455 1805 c-125 -37 -219 -126 -267 -252 -11 -29 -15 -70 -14 -135
1 -81 5 -101 30 -151 16 -31 44 -75 63 -96 35 -42 116 -96 158 -107 l25 -6 0
-159 c0 -185 8 -216 63 -243 38 -17 71 -16 104 5 43 26 48 47 51 224 l4 170
60 29 c78 37 138 98 179 182 53 106 49 237 -9 350 -80 155 -280 239 -447 189z
m171 -216 c113 -36 141 -209 48 -289 -85 -72 -219 -46 -271 54 -19 36 -19 116
0 153 44 83 125 114 223 82z"/>
</g>
</svg>
